<svg xmlns="http://www.w3.org/2000/svg" version="1.1" xmlns:xlink="http://www.w3.org/1999/xlink" xmlns:svgjs="http://svgjs.dev/svgjs" width="1000" height="1000" viewBox="0 0 1000 1000"><rect width="1000" height="1000" fill="#0000"></rect><g transform="matrix(0.3854625550660793,0,0,0.3854625550660793,307.9003634050547,150.28340096319823)"><svg viewBox="0 0 136 247" data-background-color="#0000" preserveAspectRatio="xMidYMid meet" height="1816" width="1000" xmlns="http://www.w3.org/2000/svg" xmlns:xlink="http://www.w3.org/1999/xlink"><g id="tight-bounds" transform="matrix(1,0,0,1,-0.2228573604668327,-0.09999994584299543)"><svg viewBox="0 0 136.44571472093367 247.2" height="247.2" width="136.44571472093367"><g><svg viewBox="0 0 397.4975999999999 720.1501851558303" height="247.2" width="136.44571472093367"><g><rect width="397.4975999999999" height="21.940141690376098" x="0" y="264.89137644938376" fill="#f7fff7" opacity="1" stroke-width="0" stroke="transparent" fill-opacity="1" class="rect-o-0" data-fill-palette-color="primary" rx="1%" id="o-0" data-palette-color="#f7fff7"></rect></g><g><rect width="397.4975999999999" height="21.940141690376098" x="0" y="315.54898108527834" fill="#f7fff7" opacity="1" stroke-width="0" stroke="transparent" fill-opacity="1" class="rect-o-1" data-fill-palette-color="primary" rx="1%" id="o-1" data-palette-color="#f7fff7"></rect></g><g transform="matrix(1,0,0,1,0.9887999999999693,394.92404866669136)"><svg viewBox="0 0 395.52 325.2261364891391" height="325.2261364891391" width="395.52"><g id="textblocktransform"><svg viewBox="0 0 395.52 325.2261364891391" height="325.2261364891391" width="395.52" id="textblock"><g><svg viewBox="0 0 395.52 243.28998242530753" height="243.28998242530753" width="395.52"><g transform="matrix(1,0,0,1,0,0)"><svg width="395.52" viewBox="4.949999809265137 -35 56.89999771118164 35" height="243.28998242530753" data-palette-color="#f7fff7"><path d="M22.9-19.8L22.9-18.3 8.05-18.3 23.35-33.5 6.45-33.5 6.45-1.5 25.85-1.5 25.85 0 4.95 0 4.95-35 27-35 11.7-19.8 22.9-19.8ZM35.25-1.5L54.65-1.5 54.65 0 33.75 0 33.75-35 35.25-35 35.25-1.5ZM61.85-35L61.85 0 60.35 0 60.35-35 61.85-35Z" opacity="1" transform="matrix(1,0,0,1,0,0)" fill="#f7fff7" class="undefined-text-0" data-fill-palette-color="primary" id="text-0"></path></svg></g></svg></g><g transform="matrix(1,0,0,1,75.54432,300.72490831634445)"><svg viewBox="0 0 244.43135999999998 24.50122817279463" height="24.50122817279463" width="244.43135999999998"><g transform="matrix(1,0,0,1,0,0)"><svg width="244.43135999999998" viewBox="2 -35.349998474121094 357.6099853515625 35.849998474121094" height="24.50122817279463" data-palette-color="#f7fff7"><path d="M11.15 0L2.2 0Q2 0 2-0.25L2-0.25 2.1-34.6Q2.1-34.8 2.3-34.8L2.3-34.8 11.9-34.8Q14.75-34.8 17-33.43 19.25-32.05 20.55-29.8 21.85-27.55 21.85-24.9L21.85-24.9Q21.85-22.75 20.88-20.9 19.9-19.05 18.55-17.9L18.55-17.9Q20-16.45 20.8-14.55 21.6-12.65 21.6-10.55L21.6-10.55Q21.6-7.65 20.2-5.25 18.8-2.85 16.43-1.43 14.05 0 11.15 0L11.15 0ZM8.1-28.85L8.1-21 11.9-21Q13.65-21 14.73-22.23 15.8-23.45 15.8-24.9L15.8-24.9Q15.8-26.5 14.65-27.68 13.5-28.85 11.9-28.85L11.9-28.85 8.1-28.85ZM8.1-14.95L8.05-6.1 11.15-6.1Q12.95-6.1 14.25-7.43 15.55-8.75 15.55-10.55L15.55-10.55Q15.55-12.35 14.25-13.65 12.95-14.95 11.15-14.95L11.15-14.95 8.1-14.95ZM22.5-0.25L22.5-0.25 28.7-34.6Q28.75-34.8 28.95-34.8L28.95-34.8 36.2-34.8Q36.4-34.8 36.45-34.6L36.45-34.6 42.4-0.25Q42.45 0 42.2 0L42.2 0 36.65 0Q36.45 0 36.4-0.25L36.4-0.25 35.85-3.9 29.05-3.9 28.5-0.25Q28.45 0 28.25 0L28.25 0 22.7 0Q22.5 0 22.5-0.25ZM32.3-23.3L30.05-9.25 34.85-9.25 32.8-23.3 32.5-25.15 32.3-23.3ZM53.7 0.5L53.7 0.5Q50.95 0.5 48.72-0.88 46.5-2.25 45.2-4.55 43.9-6.85 43.9-9.7L43.9-9.7 43.95-25.3Q43.95-28.05 45.22-30.33 46.5-32.6 48.72-33.98 50.95-35.35 53.7-35.35L53.7-35.35Q56.45-35.35 58.65-34 60.85-32.65 62.15-30.38 63.45-28.1 63.45-25.3L63.45-25.3 63.45-23Q63.45-22.8 63.25-22.8L63.25-22.8 57.65-22.8Q57.45-22.8 57.45-23L57.45-23 57.45-25.3Q57.45-26.95 56.37-28.15 55.3-29.35 53.7-29.35L53.7-29.35Q51.9-29.35 50.95-28.13 50-26.9 50-25.3L50-25.3 50-9.7Q50-7.85 51.07-6.7 52.15-5.55 53.7-5.55L53.7-5.55Q55.3-5.55 56.37-6.83 57.45-8.1 57.45-9.7L57.45-9.7 57.45-12Q57.45-12.2 57.65-12.2L57.65-12.2 63.3-12.2Q63.5-12.2 63.5-12L63.5-12 63.5-9.7Q63.5-6.85 62.17-4.55 60.85-2.25 58.65-0.88 56.45 0.5 53.7 0.5ZM72.99 0L67.34 0Q67.14 0 67.14-0.25L67.14-0.25 67.24-34.55Q67.24-34.8 67.44-34.8L67.44-34.8 73.04-34.8Q73.24-34.8 73.24-34.55L73.24-34.55 73.24-22.7 81.09-34.6Q81.24-34.8 81.44-34.8L81.44-34.8 87.19-34.8Q87.39-34.8 87.29-34.6L87.29-34.6 78.64-20.8 88.34-0.2Q88.44 0 88.09 0L88.09 0 81.99 0Q81.74 0 81.69-0.2L81.69-0.2 74.94-14.9 73.19-12.15 73.19-0.25Q73.19 0 72.99 0L72.99 0ZM106.94 0L90.79 0Q90.59 0 90.59-0.25L90.59-0.25 90.64-34.6Q90.64-34.8 90.84-34.8L90.84-34.8 106.89-34.8Q107.09-34.8 107.09-34.55L107.09-34.55 107.09-28.95Q107.09-28.75 106.89-28.75L106.89-28.75 96.64-28.75 96.64-20.95 106.89-20.95Q107.09-20.95 107.09-20.75L107.09-20.75 107.14-15.1Q107.14-14.9 106.94-14.9L106.94-14.9 96.64-14.9 96.64-6.15 106.94-6.15Q107.14-6.15 107.14-5.9L107.14-5.9 107.14-0.2Q107.14 0 106.94 0L106.94 0ZM117.04 0L112.04 0Q111.64 0 111.64-0.35L111.64-0.35 111.59-34.4Q111.59-34.8 111.99-34.8L111.99-34.8 116.49-34.8 124.94-15.1 124.69-34.4Q124.69-34.8 125.14-34.8L125.14-34.8 130.09-34.8Q130.39-34.8 130.39-34.4L130.39-34.4 130.44-0.3Q130.44 0 130.19 0L130.19 0 125.79 0 117.14-18.4 117.49-0.4Q117.49 0 117.04 0L117.04 0ZM143.99-0.05L135.04 0Q134.79 0 134.79-0.25L134.79-0.25 134.89-34.6Q134.89-34.8 135.09-34.8L135.09-34.8 144.44-34.85Q147.19-34.9 149.46-33.55 151.74-32.2 153.09-29.93 154.44-27.65 154.44-24.9L154.44-24.9 154.44-10.55Q154.44-7.65 153.04-5.28 151.64-2.9 149.29-1.5 146.94-0.1 143.99-0.05L143.99-0.05ZM140.94-28.8L140.89-6.15 143.99-6.15Q145.84-6.15 147.11-7.45 148.39-8.75 148.39-10.55L148.39-10.55 148.39-24.95Q148.39-26.55 147.21-27.73 146.04-28.9 144.44-28.85L144.44-28.85 140.94-28.8ZM174.98-0.05L166.03 0Q165.78 0 165.78-0.25L165.78-0.25 165.88-34.6Q165.88-34.8 166.08-34.8L166.08-34.8 175.43-34.85Q178.18-34.9 180.46-33.55 182.73-32.2 184.08-29.93 185.43-27.65 185.43-24.9L185.43-24.9 185.43-10.55Q185.43-7.65 184.03-5.28 182.63-2.9 180.28-1.5 177.93-0.1 174.98-0.05L174.98-0.05ZM171.93-28.8L171.88-6.15 174.98-6.15Q176.83-6.15 178.11-7.45 179.38-8.75 179.38-10.55L179.38-10.55 179.38-24.95Q179.38-26.55 178.21-27.73 177.03-28.9 175.43-28.85L175.43-28.85 171.93-28.8ZM205.73 0L189.58 0Q189.38 0 189.38-0.25L189.38-0.25 189.43-34.6Q189.43-34.8 189.63-34.8L189.63-34.8 205.68-34.8Q205.88-34.8 205.88-34.55L205.88-34.55 205.88-28.95Q205.88-28.75 205.68-28.75L205.68-28.75 195.43-28.75 195.43-20.95 205.68-20.95Q205.88-20.95 205.88-20.75L205.88-20.75 205.93-15.1Q205.93-14.9 205.73-14.9L205.73-14.9 195.43-14.9 195.43-6.15 205.73-6.15Q205.93-6.15 205.93-5.9L205.93-5.9 205.93-0.2Q205.93 0 205.73 0L205.73 0ZM222.03 0L215.98 0Q215.78 0 215.73-0.25L215.73-0.25 208.83-34.6Q208.78-34.8 209.03-34.8L209.03-34.8 214.68-34.8Q214.88-34.8 214.93-34.6L214.93-34.6 219.03-11.7 223.03-34.6Q223.08-34.8 223.28-34.8L223.28-34.8 228.88-34.8Q229.13-34.8 229.08-34.6L229.08-34.6 222.28-0.25Q222.23 0 222.03 0L222.03 0ZM248.37 0L232.22 0Q232.02 0 232.02-0.25L232.02-0.25 232.07-34.6Q232.07-34.8 232.27-34.8L232.27-34.8 248.32-34.8Q248.52-34.8 248.52-34.55L248.52-34.55 248.52-28.95Q248.52-28.75 248.32-28.75L248.32-28.75 238.07-28.75 238.07-20.95 248.32-20.95Q248.52-20.95 248.52-20.75L248.52-20.75 248.57-15.1Q248.57-14.9 248.37-14.9L248.37-14.9 238.07-14.9 238.07-6.15 248.37-6.15Q248.57-6.15 248.57-5.9L248.57-5.9 248.57-0.2Q248.57 0 248.37 0L248.37 0ZM269.37 0L253.22 0Q253.02 0 253.02-0.25L253.02-0.25 253.07-34.55Q253.07-34.8 253.32-34.8L253.32-34.8 258.87-34.8Q259.12-34.8 259.12-34.55L259.12-34.55 259.07-6.15 269.37-6.15Q269.62-6.15 269.62-5.9L269.62-5.9 269.62-0.25Q269.62 0 269.37 0L269.37 0ZM281.42 0.5L281.42 0.5Q278.72 0.5 276.49-0.88 274.27-2.25 272.92-4.53 271.57-6.8 271.57-9.55L271.57-9.55 271.62-25.4Q271.62-28.15 272.94-30.4 274.27-32.65 276.52-34 278.77-35.35 281.42-35.35L281.42-35.35Q284.12-35.35 286.32-34 288.52-32.65 289.84-30.4 291.17-28.15 291.17-25.4L291.17-25.4 291.22-9.55Q291.22-6.8 289.89-4.53 288.57-2.25 286.34-0.88 284.12 0.5 281.42 0.5ZM281.42-5.55L281.42-5.55Q282.92-5.55 284.04-6.78 285.17-8 285.17-9.55L285.17-9.55 285.12-25.4Q285.12-27.05 284.07-28.2 283.02-29.35 281.42-29.35L281.42-29.35Q279.87-29.35 278.77-28.23 277.67-27.1 277.67-25.4L277.67-25.4 277.67-9.55Q277.67-7.9 278.77-6.73 279.87-5.55 281.42-5.55ZM300.87 0L295.27 0Q295.02 0 295.02-0.25L295.02-0.25 295.12-34.6Q295.12-34.8 295.32-34.8L295.32-34.8 304.92-34.8Q309.52-34.8 312.19-32 314.87-29.2 314.87-24.4L314.87-24.4Q314.87-20.85 313.47-18.25 312.07-15.65 309.82-14.25 307.57-12.85 304.92-12.85L304.92-12.85 301.12-12.85 301.12-0.25Q301.12 0 300.87 0L300.87 0ZM301.12-28.8L301.12-18.9 304.92-18.9Q306.52-18.9 307.69-20.43 308.87-21.95 308.87-24.4L308.87-24.4Q308.87-26.35 307.82-27.6 306.77-28.85 304.92-28.85L304.92-28.85 301.12-28.8ZM334.61 0L318.46 0Q318.26 0 318.26-0.25L318.26-0.25 318.31-34.6Q318.31-34.8 318.51-34.8L318.51-34.8 334.56-34.8Q334.76-34.8 334.76-34.55L334.76-34.55 334.76-28.95Q334.76-28.75 334.56-28.75L334.56-28.75 324.31-28.75 324.31-20.95 334.56-20.95Q334.76-20.95 334.76-20.75L334.76-20.75 334.81-15.1Q334.81-14.9 334.61-14.9L334.61-14.9 324.31-14.9 324.31-6.15 334.61-6.15Q334.81-6.15 334.81-5.9L334.81-5.9 334.81-0.2Q334.81 0 334.61 0L334.61 0ZM345.11 0L339.46 0Q339.26 0 339.26-0.25L339.26-0.25 339.36-34.6Q339.36-34.8 339.56-34.8L339.56-34.8 349.66-34.8Q352.36-34.8 354.64-33.48 356.91-32.15 358.26-29.93 359.61-27.7 359.61-24.9L359.61-24.9Q359.61-23.05 359.06-21.58 358.51-20.1 357.76-19.07 357.01-18.05 356.41-17.55L356.41-17.55Q359.11-14.55 359.11-10.5L359.11-10.5 359.16-0.25Q359.16 0 358.91 0L358.91 0 353.26 0Q353.06 0 353.06-0.15L353.06-0.15 353.06-10.5Q353.06-12.3 351.79-13.63 350.51-14.95 348.66-14.95L348.66-14.95 345.36-14.95 345.31-0.25Q345.31 0 345.11 0L345.11 0ZM345.36-28.8L345.36-20.95 349.66-20.95Q351.21-20.95 352.41-22.1 353.61-23.25 353.61-24.9L353.61-24.9Q353.61-26.5 352.44-27.65 351.26-28.8 349.66-28.8L349.66-28.8 345.36-28.8Z" opacity="1" transform="matrix(1,0,0,1,0,0)" fill="#f7fff7" class="undefined-text-1" data-fill-palette-color="secondary" id="text-1"></path></svg></g></svg></g></svg></g></svg></g><g transform="matrix(1,0,0,1,76.53311999999997,0)"><svg viewBox="0 0 244.43135999999998 207.45645055834683" height="207.45645055834683" width="244.43135999999998"><g><svg xmlns="http://www.w3.org/2000/svg" xmlns:xlink="http://www.w3.org/1999/xlink" version="1.1" x="0" y="0" viewBox="0.16599999368190765 4.0320000648498535 50.23500061035156 42.6359977722168" enable-background="new 0 0 50.4 50.4" xml:space="preserve" width="244.43135999999998" height="207.45645055834683" class="icon-icon-0" data-fill-palette-color="accent" id="icon-0"><g fill="#ef435f" data-fill-palette-color="accent"><rect x="0.166" y="31.438" width="3.515" height="3.518" fill="#ef435f" data-fill-palette-color="accent"></rect><rect x="5.93" y="31.438" width="3.515" height="3.518" fill="#ef435f" data-fill-palette-color="accent"></rect><rect x="11.834" y="31.438" width="3.516" height="3.518" fill="#ef435f" data-fill-palette-color="accent"></rect><rect x="17.599" y="31.438" width="3.514" height="3.518" fill="#ef435f" data-fill-palette-color="accent"></rect><rect x="23.502" y="31.438" width="3.515" height="3.518" fill="#ef435f" data-fill-palette-color="accent"></rect><rect x="29.267" y="31.438" width="3.515" height="3.518" fill="#ef435f" data-fill-palette-color="accent"></rect><rect x="35.17" y="31.438" width="3.517" height="3.518" fill="#ef435f" data-fill-palette-color="accent"></rect><rect x="40.937" y="31.438" width="3.515" height="3.518" fill="#ef435f" data-fill-palette-color="accent"></rect><rect x="0.166" y="37.269" width="3.515" height="3.514" fill="#ef435f" data-fill-palette-color="accent"></rect><rect x="5.93" y="37.269" width="3.515" height="3.514" fill="#ef435f" data-fill-palette-color="accent"></rect><rect x="11.834" y="37.269" width="3.516" height="3.514" fill="#ef435f" data-fill-palette-color="accent"></rect><rect x="17.599" y="37.269" width="3.514" height="3.514" fill="#ef435f" data-fill-palette-color="accent"></rect><rect x="23.502" y="37.269" width="3.515" height="3.514" fill="#ef435f" data-fill-palette-color="accent"></rect><rect x="29.267" y="37.269" width="3.515" height="3.514" fill="#ef435f" data-fill-palette-color="accent"></rect><rect x="35.17" y="37.269" width="3.517" height="3.514" fill="#ef435f" data-fill-palette-color="accent"></rect><rect x="40.937" y="37.269" width="3.515" height="3.514" fill="#ef435f" data-fill-palette-color="accent"></rect><rect x="0.166" y="43.154" width="3.515" height="3.514" fill="#ef435f" data-fill-palette-color="accent"></rect><rect x="5.93" y="43.154" width="3.515" height="3.514" fill="#ef435f" data-fill-palette-color="accent"></rect><rect x="11.834" y="43.154" width="26.853" height="3.514" fill="#ef435f" data-fill-palette-color="accent"></rect><rect x="40.937" y="43.154" width="3.515" height="3.514" fill="#ef435f" data-fill-palette-color="accent"></rect><rect x="46.887" y="31.438" width="3.514" height="3.518" fill="#ef435f" data-fill-palette-color="accent"></rect><rect x="46.887" y="37.269" width="3.514" height="3.514" fill="#ef435f" data-fill-palette-color="accent"></rect><rect x="46.887" y="43.154" width="3.514" height="3.514" fill="#ef435f" data-fill-palette-color="accent"></rect><rect x="6" y="4.032" width="38.521" height="24.06" fill="#ef435f" data-fill-palette-color="accent"></rect></g></svg></g></svg></g><g></g></svg></g><defs></defs></svg><rect width="136.44571472093367" height="247.2" fill="none" stroke="none" visibility="hidden"></rect></g></svg></g></svg>