<?xml version="1.0" standalone="no"?>
<!DOCTYPE svg PUBLIC "-//W3C//DTD SVG 20010904//EN"
 "http://www.w3.org/TR/2001/REC-SVG-20010904/DTD/svg10.dtd">
<svg version="1.0" xmlns="http://www.w3.org/2000/svg"
 width="500.000000pt" height="500.000000pt" viewBox="0 0 500.000000 500.000000"
 preserveAspectRatio="xMidYMid meet">

<g transform="translate(0.000000,500.000000) scale(0.100000,-0.100000)"
fill="#000000" stroke="none">
<path d="M2007 3240 c-117 -35 -168 -176 -115 -317 28 -77 136 -186 228 -232
l65 -32 -55 7 c-58 7 -149 37 -187 62 -22 13 -23 13 -23 -10 0 -29 -17 -48
-44 -48 -14 0 -17 -3 -10 -10 16 -16 190 -50 252 -50 75 0 188 19 236 40 45
20 46 19 -59 44 -150 36 -265 109 -309 198 -56 112 -11 208 96 208 113 0 244
-147 341 -382 15 -36 17 -37 46 -27 20 7 40 8 58 1 28 -9 28 -8 79 97 116 241
259 355 373 296 36 -18 65 -85 55 -129 -17 -81 -88 -162 -182 -210 -54 -27
-182 -66 -219 -66 -36 0 -27 -16 18 -34 99 -40 267 -44 406 -10 70 17 103 34
67 34 -27 0 -44 19 -44 47 l0 23 -47 -24 c-49 -24 -163 -56 -199 -56 -10 0 12
17 50 37 155 83 241 204 241 338 -1 78 -15 115 -65 161 -65 62 -163 71 -256
24 -100 -49 -174 -141 -254 -312 -25 -54 -48 -97 -51 -98 -3 0 -23 38 -44 85
-48 109 -124 224 -178 271 -84 73 -182 100 -270 74z"/>
<path d="M490 2220 c0 -153 1 -160 20 -160 18 0 20 8 22 153 l3 152 28 3 c83
10 94 -121 12 -141 -19 -4 -18 -5 2 -6 29 -1 56 -38 77 -105 15 -48 21 -56 43
-56 21 0 23 3 18 23 -14 46 -51 102 -81 122 l-30 21 30 15 c40 20 53 61 31 95
-21 32 -53 44 -121 44 l-54 0 0 -160z"/>
<path d="M760 2220 l0 -160 95 0 c52 0 95 3 95 8 0 4 -33 7 -72 7 l-73 0 -3
73 -3 72 56 0 c30 0 55 3 55 8 0 4 -25 5 -55 4 l-55 -4 0 59 c0 82 5 87 79 78
42 -5 61 -4 61 4 0 7 -31 11 -90 11 l-90 0 0 -160z"/>
<path d="M1040 2373 c-11 -3 -23 -46 -45 -158 -17 -85 -27 -155 -23 -155 9 0
12 12 34 140 9 52 20 99 24 103 4 4 22 -43 39 -105 18 -62 34 -119 36 -125 3
-7 11 -13 19 -13 9 0 22 26 36 73 45 150 54 177 60 177 4 0 17 -59 30 -130 22
-122 25 -130 44 -124 12 4 21 7 22 8 1 1 -59 310 -61 314 -1 1 -9 0 -18 -4
-10 -3 -30 -51 -53 -125 -21 -65 -40 -119 -44 -119 -4 0 -24 55 -46 123 -29
91 -43 122 -54 120z"/>
<path d="M1360 2220 l0 -160 95 0 c52 0 95 3 95 8 0 4 -33 7 -72 7 l-73 0 -3
73 -3 72 56 0 c30 0 55 3 55 8 0 4 -25 5 -55 4 l-55 -4 0 59 c0 82 5 87 79 78
42 -5 61 -4 61 4 0 7 -31 11 -90 11 l-90 0 0 -160z"/>
<path d="M1642 2371 c-8 -5 -27 -72 -43 -152 -32 -164 -32 -159 -21 -159 4 0
16 50 26 111 10 62 21 121 25 131 7 18 23 -31 77 -224 6 -21 33 -24 38 -5 63
201 80 249 84 232 3 -11 15 -72 26 -135 20 -103 24 -115 41 -112 11 2 21 5 22
6 1 0 -12 71 -29 157 -40 198 -48 200 -103 23 -21 -69 -42 -121 -46 -117 -4 4
-22 58 -39 118 -39 131 -41 137 -58 126z"/>
<path d="M1969 2373 c-1 -5 -2 -77 -3 -160 -1 -150 -1 -153 20 -153 21 0 21 3
16 109 -2 59 -2 129 2 155 7 42 10 46 34 46 36 0 49 -10 61 -44 16 -39 -5 -79
-44 -86 l-30 -6 37 -7 c60 -12 85 -69 56 -131 -13 -29 -38 -40 -70 -31 -20 5
-21 5 -5 -5 10 -7 31 -9 50 -5 80 17 105 99 46 149 -17 14 -36 26 -42 26 -7 1
0 7 15 16 53 28 48 97 -8 120 -35 15 -133 19 -135 7z"/>
<path d="M2229 2378 c0 -2 -2 -74 -2 -161 l-2 -157 93 0 c50 0 92 4 92 8 0 4
-31 6 -70 4 l-70 -4 0 76 0 76 50 0 c28 0 50 3 50 8 0 4 -22 5 -50 4 l-50 -4
0 72 0 72 65 -7 c44 -4 65 -3 65 4 0 7 -31 11 -85 11 -47 0 -85 -1 -86 -2z"/>
<path d="M2459 2373 c-1 -5 -2 -77 -3 -160 -1 -147 0 -153 19 -153 19 0 20 5
16 120 -2 66 0 136 3 155 6 30 11 35 35 35 75 0 90 -118 18 -139 -24 -7 -27
-9 -10 -10 29 -1 59 -42 80 -107 14 -45 21 -54 40 -54 13 0 23 4 23 9 0 27
-42 101 -73 128 l-35 31 24 11 c57 26 56 103 -1 127 -36 15 -134 20 -136 7z"/>
<path d="M2840 2370 c0 -5 9 -10 20 -10 11 0 20 5 20 10 0 6 -9 10 -20 10 -11
0 -20 -4 -20 -10z"/>
<path d="M3000 2370 c-12 -8 -11 -10 8 -10 12 0 22 5 22 10 0 13 -11 13 -30 0z"/>
<path d="M3078 2221 l-3 -161 23 0 c21 0 22 4 22 80 l0 80 80 0 80 0 0 -80 c0
-73 2 -80 20 -80 19 0 20 7 20 161 0 147 -1 160 -17 157 -15 -3 -19 -16 -21
-76 l-3 -72 -79 0 -79 0 -3 72 c-2 59 -6 73 -20 76 -15 3 -17 -12 -20 -157z"/>
<path d="M3390 2220 l0 -160 90 0 c50 0 90 3 90 8 0 4 -31 6 -70 4 l-70 -4 0
76 0 76 55 0 c30 0 55 4 55 8 0 5 -25 7 -55 4 l-56 -5 3 69 3 69 69 -3 c46 -2
66 0 61 7 -3 7 -41 11 -91 11 l-84 0 0 -160z"/>
<path d="M3760 2220 c0 -159 0 -160 23 -160 22 0 22 1 22 152 l0 153 44 -1
c35 -1 49 -7 67 -28 75 -86 44 -269 -44 -269 -18 0 -32 -4 -32 -9 0 -15 35 -8
80 15 56 28 82 72 82 136 0 106 -73 171 -193 171 l-49 0 0 -160z"/>
<path d="M4153 2372 c-7 -4 -25 -44 -42 -89 -17 -45 -44 -114 -61 -153 -16
-40 -25 -70 -18 -68 6 2 21 33 33 69 l22 64 55 3 56 3 21 -58 c12 -32 24 -64
26 -70 2 -7 15 -13 29 -13 l25 0 -43 103 c-24 56 -51 126 -60 154 -19 57 -26
66 -43 55z m12 -79 c33 -79 33 -83 -19 -83 -25 0 -46 4 -46 9 0 11 42 111 46
111 2 0 11 -17 19 -37z"/>
<path d="M4310 2375 c0 -3 11 -22 24 -43 65 -103 77 -139 70 -207 l-7 -65 28
0 27 0 -7 69 c-6 62 -4 73 20 122 15 30 38 71 51 91 14 21 20 38 14 38 -6 0
-27 -34 -47 -75 -21 -41 -42 -74 -47 -72 -5 2 -26 35 -45 75 -29 56 -41 71
-58 72 -13 0 -23 -2 -23 -5z"/>
<path d="M2910 2215 c0 -154 0 -155 23 -155 22 0 22 1 22 155 0 154 0 155 -22
155 -23 0 -23 -1 -23 -155z"/>
<path d="M1180 1778 c0 -13 -3 -41 -6 -63 -5 -28 -3 -37 4 -30 6 6 12 26 14
45 l3 35 17 -37 c9 -21 21 -38 25 -38 5 0 15 17 23 38 l14 37 12 -45 c8 -31
12 -37 13 -20 1 37 -11 100 -19 100 -4 0 -15 -21 -25 -47 l-19 -48 -19 48
c-21 50 -37 61 -37 25z"/>
<path d="M1360 1740 l0 -60 43 2 42 1 -37 4 c-32 4 -38 8 -38 28 0 18 6 25 28
28 l27 4 -27 2 c-39 2 -38 31 1 31 17 0 33 5 36 10 4 6 -10 10 -34 10 l-41 0
0 -60z"/>
<path d="M1495 1788 c-8 -29 -12 -108 -4 -108 4 0 9 19 11 43 l3 42 19 -37
c11 -21 23 -38 27 -38 4 0 14 17 22 38 16 40 15 42 30 -33 3 -11 5 3 6 30 0
28 -4 57 -9 65 -7 12 -13 6 -27 -27 -10 -24 -21 -43 -24 -43 -4 0 -14 18 -23
40 -17 42 -24 48 -31 28z"/>
<path d="M1694 1792 c-13 -8 -34 -46 -34 -61 0 -19 39 -51 63 -51 53 0 77 75
35 104 -24 17 -47 20 -64 8z m74 -49 c2 -10 -6 -27 -18 -38 -17 -15 -24 -16
-45 -7 -34 16 -36 69 -2 81 27 11 61 -8 65 -36z"/>
<path d="M1841 1738 c1 -35 4 -53 6 -40 6 28 38 29 53 1 7 -11 14 -18 17 -16
3 3 0 13 -5 23 -7 12 -6 24 1 36 17 26 -3 52 -42 56 l-31 3 1 -63z m64 22 c0
-9 -11 -16 -27 -18 -23 -3 -28 1 -28 18 0 17 5 21 28 18 16 -2 27 -9 27 -18z"/>
<path d="M1970 1741 c0 -34 4 -61 10 -61 6 0 10 24 10 54 0 30 -4 58 -10 61
-6 4 -10 -17 -10 -54z"/>
<path d="M2050 1740 l0 -60 43 2 42 1 -37 4 c-32 4 -38 8 -38 28 0 18 6 25 28
28 l27 4 -27 2 c-39 2 -38 31 1 31 17 0 33 5 36 10 4 6 -10 10 -34 10 l-41 0
0 -60z"/>
<path d="M2187 1794 c-18 -19 -5 -45 30 -59 35 -15 36 -17 20 -33 -15 -14 -20
-15 -38 -4 -18 11 -20 11 -17 0 6 -18 46 -22 64 -8 23 20 16 40 -21 56 -19 8
-35 18 -35 23 0 15 23 19 44 9 14 -8 17 -7 14 4 -5 14 -49 23 -61 12z"/>
<path d="M2408 1743 c-24 -54 -28 -89 -7 -50 12 21 57 23 65 2 4 -8 10 -15 15
-15 9 0 -26 98 -40 113 -5 4 -19 -18 -33 -50z m45 -3 c4 -15 0 -20 -14 -20
-20 0 -23 8 -13 34 7 20 20 13 27 -14z"/>
<path d="M2541 1738 c1 -35 4 -53 6 -40 6 28 38 29 53 1 7 -11 14 -18 17 -16
2 3 0 14 -6 26 -7 13 -8 22 -1 26 16 10 12 52 -6 59 -9 3 -27 6 -40 6 -23 0
-24 -3 -23 -62z m67 25 c-2 -11 -14 -19 -31 -21 -22 -3 -27 1 -27 17 0 17 6
21 31 21 24 0 30 -4 27 -17z"/>
<path d="M2680 1740 l0 -60 43 2 42 1 -38 4 c-33 4 -38 7 -35 26 2 15 12 24
33 28 l30 7 -32 1 c-48 2 -45 31 2 31 19 0 35 5 35 10 0 6 -18 10 -40 10 l-40
0 0 -60z"/>
<path d="M2890 1740 c0 -33 4 -60 10 -60 6 0 10 11 10 24 0 19 6 26 28 29 l27
4 -27 2 c-21 1 -28 6 -28 21 0 16 7 20 30 20 17 0 30 5 30 10 0 6 -18 10 -40
10 l-40 0 0 -60z"/>
<path d="M3042 1784 c-43 -30 -17 -104 36 -104 28 0 62 34 62 60 0 25 -34 60
-58 60 -10 0 -28 -7 -40 -16z m76 -43 c3 -25 -2 -33 -22 -43 -22 -9 -29 -8
-46 7 -26 23 -25 50 1 69 32 22 63 6 67 -33z"/>
<path d="M3191 1738 c1 -35 4 -53 6 -40 6 29 49 31 58 2 3 -11 11 -20 16 -20
6 0 6 8 -1 20 -7 14 -8 26 0 39 13 25 13 27 -6 45 -8 9 -29 16 -45 16 l-29 0
1 -62z m69 22 c0 -16 -7 -20 -30 -20 -23 0 -30 4 -30 20 0 16 7 20 30 20 23 0
30 -4 30 -20z"/>
<path d="M3330 1740 l0 -60 43 1 42 2 -35 6 c-46 8 -50 43 -5 52 l30 7 -32 1
c-48 2 -45 31 2 31 19 0 35 5 35 10 0 6 -18 10 -40 10 l-40 0 0 -60z"/>
<path d="M3461 1790 c-1 -8 10 -37 23 -65 l23 -50 27 59 c14 33 24 61 21 64
-3 3 -15 -17 -27 -44 l-21 -49 -23 50 c-13 28 -23 43 -23 35z"/>
<path d="M3610 1740 l0 -60 43 1 42 2 -35 6 c-46 8 -50 43 -5 52 l30 7 -32 1
c-48 2 -45 31 2 31 19 0 35 5 35 10 0 6 -18 10 -40 10 l-40 0 0 -60z"/>
<path d="M3740 1741 c0 -34 4 -61 10 -61 6 0 10 9 10 20 0 13 7 20 19 20 11 0
23 -9 26 -20 3 -11 11 -20 16 -20 6 0 6 8 -1 20 -8 14 -7 25 2 40 19 29 -1 54
-46 58 l-36 3 0 -60z m73 33 c12 -12 -6 -34 -29 -34 -17 0 -24 6 -24 20 0 14
7 20 23 20 13 0 26 -3 30 -6z"/>
</g>
</svg>
